<mxfile host="app.diagrams.net" modified="2021-03-24T14:08:49.908Z" agent="5.0 (Windows NT 10.0; Win64; x64) AppleWebKit/537.36 (KHTML, like Gecko) Chrome/89.0.4389.90 Safari/537.36" etag="aLeYdyAAflTWdFvUcTA1" version="14.5.1" type="github">
  <diagram id="y3UfGKTNSQQwZTBbPD6s" name="第 1 页">
    <mxGraphModel dx="1422" dy="706" grid="0" gridSize="10" guides="1" tooltips="1" connect="1" arrows="1" fold="1" page="1" pageScale="1" pageWidth="827" pageHeight="1169" math="0" shadow="1">
      <root>
        <mxCell id="0" />
        <mxCell id="1" parent="0" />
        <mxCell id="vLTPAVLj6lqfdvwcnZeB-1" value="&lt;font style=&quot;font-size: 14px&quot;&gt;app&lt;/font&gt;" style="rounded=0;whiteSpace=wrap;html=1;fillColor=#d5e8d4;strokeColor=#82b366;" vertex="1" parent="1">
          <mxGeometry x="200" y="120" width="120" height="60" as="geometry" />
        </mxCell>
        <mxCell id="vLTPAVLj6lqfdvwcnZeB-8" style="edgeStyle=orthogonalEdgeStyle;rounded=0;orthogonalLoop=1;jettySize=auto;html=1;exitX=0.5;exitY=1;exitDx=0;exitDy=0;entryX=0.5;entryY=0;entryDx=0;entryDy=0;dashed=1;startArrow=none;startFill=0;endArrow=block;endFill=1;" edge="1" parent="1" source="vLTPAVLj6lqfdvwcnZeB-2" target="vLTPAVLj6lqfdvwcnZeB-7">
          <mxGeometry relative="1" as="geometry" />
        </mxCell>
        <mxCell id="vLTPAVLj6lqfdvwcnZeB-2" value="&lt;font style=&quot;font-size: 14px&quot;&gt;kernel&lt;/font&gt;" style="rounded=0;whiteSpace=wrap;html=1;fillColor=#e1d5e7;strokeColor=#9673a6;" vertex="1" parent="1">
          <mxGeometry x="200" y="261" width="120" height="60" as="geometry" />
        </mxCell>
        <mxCell id="vLTPAVLj6lqfdvwcnZeB-4" value="" style="curved=1;endArrow=block;html=1;endFill=1;dashed=1;startArrow=block;startFill=1;entryX=0.642;entryY=1;entryDx=0;entryDy=0;entryPerimeter=0;exitX=0.5;exitY=0;exitDx=0;exitDy=0;" edge="1" parent="1" source="vLTPAVLj6lqfdvwcnZeB-2" target="vLTPAVLj6lqfdvwcnZeB-1">
          <mxGeometry width="50" height="50" relative="1" as="geometry">
            <mxPoint x="235" y="246" as="sourcePoint" />
            <mxPoint x="285" y="196" as="targetPoint" />
            <Array as="points">
              <mxPoint x="270" y="236" />
              <mxPoint x="235" y="196" />
            </Array>
          </mxGeometry>
        </mxCell>
        <mxCell id="vLTPAVLj6lqfdvwcnZeB-5" value="trap" style="text;html=1;align=center;verticalAlign=middle;resizable=0;points=[];autosize=1;" vertex="1" parent="1">
          <mxGeometry x="262" y="210" width="40" height="20" as="geometry" />
        </mxCell>
        <mxCell id="vLTPAVLj6lqfdvwcnZeB-6" value="return-from-trap" style="text;html=1;align=center;verticalAlign=middle;resizable=0;points=[];autosize=1;" vertex="1" parent="1">
          <mxGeometry x="150" y="210" width="100" height="20" as="geometry" />
        </mxCell>
        <mxCell id="vLTPAVLj6lqfdvwcnZeB-7" value="&lt;font style=&quot;font-size: 14px&quot;&gt;硬件&lt;/font&gt;" style="rounded=0;whiteSpace=wrap;html=1;fillColor=#d5e8d4;strokeColor=#82b366;" vertex="1" parent="1">
          <mxGeometry x="200" y="360" width="120" height="60" as="geometry" />
        </mxCell>
        <mxCell id="vLTPAVLj6lqfdvwcnZeB-9" value="" style="endArrow=none;html=1;" edge="1" parent="1">
          <mxGeometry width="50" height="50" relative="1" as="geometry">
            <mxPoint x="120" y="200" as="sourcePoint" />
            <mxPoint x="400" y="200" as="targetPoint" />
          </mxGeometry>
        </mxCell>
        <mxCell id="vLTPAVLj6lqfdvwcnZeB-10" value="" style="endArrow=none;html=1;" edge="1" parent="1">
          <mxGeometry width="50" height="50" relative="1" as="geometry">
            <mxPoint x="120" y="340" as="sourcePoint" />
            <mxPoint x="400" y="340" as="targetPoint" />
          </mxGeometry>
        </mxCell>
        <mxCell id="vLTPAVLj6lqfdvwcnZeB-11" value="&lt;font style=&quot;font-size: 14px&quot;&gt;用户模式&lt;/font&gt;" style="text;html=1;align=center;verticalAlign=middle;resizable=0;points=[];autosize=1;" vertex="1" parent="1">
          <mxGeometry x="345" y="130" width="70" height="20" as="geometry" />
        </mxCell>
        <mxCell id="vLTPAVLj6lqfdvwcnZeB-12" value="&lt;font style=&quot;font-size: 14px&quot;&gt;内核模式&lt;/font&gt;" style="text;html=1;align=center;verticalAlign=middle;resizable=0;points=[];autosize=1;" vertex="1" parent="1">
          <mxGeometry x="344" y="281" width="70" height="20" as="geometry" />
        </mxCell>
      </root>
    </mxGraphModel>
  </diagram>
</mxfile>
